# xmcd
#
# Track frame offsets:
#	150
#	14992
#	28889
#	39416
#	51408
#	63842
#	78167
#	88879
#	99741
#	110000
#	121772
#	132417
#	144314
#	162303
#	173920
#	186230
#	196874
#	216196
#	228778
#	240133
#	253987
#	266731
#	281438
#	293855
#	311075
#	321789
#
# Disc length: 4455 seconds
#
# Revision: 1
# Processed by: cddbd v1.5.2PL0 Copyright (c) Steve Scherf et al.
# Submitted via: audiograbber 1.83.01
#
DISCID=8011651a
DTITLE=Diverse kunstnere Country - Best of country CD 1
DYEAR=1900
DGENRE=
TTITLE0=Glenn Campell - Rhinestone Cowboy
TTITLE1=Billie Jo Spears - Mr Walker It압 All Over
TTITLE2=Jodi Miller - Queen Of The House
TTITLE3=Wanda Jackson - Right Or Wrong
TTITLE4=Merle Haggard and Strangers - Okie From Muskogee
TTITLE5=Dr Hook - A Coppel More Years
TTITLE6=Jessi Colter - What압 Happed To Blue Eyes
TTITLE7=Dave Dudley - Six Days On The Road
TTITLE8=Ned Miller - From A Jack To A King
TTITLE9=Bobbie Centry and Glenn Cambell - All I Have To Do Is Dream
TTITLE10=Ferlin Husky - Wings Of A Dove
TTITLE11=Tennessee Ernie Ford - Sixteen Tons
TTITLE12=Bobby Goldsboro - Honey
TTITLE13=Sonny James - Young Love
TTITLE14=Melba Montgomery - Baby You았e Got What It Takes
TTITLE15=Ricky Nelson - Hello Mary Lou
TTITLE16=Bobby Centry - Ode To Billiy Joe
TTITLE17=Louvin Brothers - My Babys Gone
TTITLE18=Conway Twitty - It압 Only Make Belive
TTITLE19=John Denver - Thank God I앐 A Country Boy
TTITLE20=Bellamy Brothers - Let Your Love Flow
TTITLE21=Asleep At The Whell - The Letter That Johnny Walker Read
TTITLE22=Glenn Cambell and Rita Coolidge - Something Bout You Baby I Like
TTITLE23=Melba Montgomery - Angel Of The Morning
TTITLE24=Mel Mcdaniel - Louisiana Saturday Night
TTITLE25=Sawyer Brown - Step The Step
EXTD=
EXTT0=
EXTT1=
EXTT2=
EXTT3=
EXTT4=
EXTT5=
EXTT6=
EXTT7=
EXTT8=
EXTT9=
EXTT10=
EXTT11=
EXTT12=
EXTT13=
EXTT14=
EXTT15=
EXTT16=
EXTT17=
EXTT18=
EXTT19=
EXTT20=
EXTT21=
EXTT22=
EXTT23=
EXTT24=
EXTT25=
PLAYORDER=
